# xmcd
#
# Track frame offsets:
#       150
#       19400
#       37162
#       54892
#       73592
#       92992
#       115615
#       131100
#       152100
#       158492
#       178855
#       187087
#       209132
#       221565
#       252037
#
# Disc length: 3573 seconds
#
# Revision: 0
# Processed by: cddbd v1.4PL0 Copyright (c) Steve Scherf et al.
# Submitted via: CD-DA_X-Tractor v0.23
#
DISCID=de0df30f
DTITLE=Robin Casinader - All This Will Be Yours
DYEAR=1991
DGENRE=
TTITLE0=All This Will Be Yours
TTITLE1=Barrel Down Below
TTITLE2=Getaway Car
TTITLE3=Danny's Hand
TTITLE4=I Am His Dominion
TTITLE5=Next Room Down
TTITLE6=Ark
TTITLE7=1st Turn Past the Sun
TTITLE8=Hood
TTITLE9=Breathe On Mirror
TTITLE10=Blue Music
TTITLE11=Twice Blood
TTITLE12=Invitation
TTITLE13=Gift Is Forever
TTITLE14=Renny's Waltz
EXTD=
EXTT0=
EXTT1=
EXTT2=
EXTT3=
EXTT4=
EXTT5=
EXTT6=
EXTT7=
EXTT8=
EXTT9=
EXTT10=
EXTT11=
EXTT12=
EXTT13=
EXTT14=
PLAYORDER=
